<?xml version="1.0" standalone="no"?>
<!DOCTYPE svg PUBLIC "-//W3C//DTD SVG 20010904//EN"
 "http://www.w3.org/TR/2001/REC-SVG-20010904/DTD/svg10.dtd">
<svg version="1.0" xmlns="http://www.w3.org/2000/svg"
 width="470.000000pt" height="310.000000pt" viewBox="0 0 470.000000 310.000000"
 preserveAspectRatio="xMidYMid meet">
<metadata>
Created by potrace 1.16, written by Peter Selinger 2001-2019
</metadata>
<g transform="translate(0.000000,310.000000) scale(0.100000,-0.100000)"
fill="#000000" stroke="none">
<path d="M0 1550 l0 -1550 2350 0 2350 0 0 1550 0 1550 -2350 0 -2350 0 0
-1550z m1197 543 c-4 -17 -4 -17 -12 0 -4 9 -4 25 0 35 8 16 8 16 12 0 3 -10
3 -26 0 -35z m-72 -13 c14 -16 15 -20 4 -20 -16 0 -39 19 -39 32 0 14 16 9 35
-12z m160 0 c-10 -11 -23 -20 -28 -20 -6 0 -2 9 8 20 10 11 23 20 28 20 6 0 2
-9 -8 -20z m-57 -42 c16 -16 15 -29 -4 -95 -20 -70 -40 -68 -64 9 -15 50 -16
60 -3 78 16 22 52 27 71 8z m83 -28 c5 0 9 -4 9 -10 0 -5 -11 -10 -25 -10 -16
0 -25 6 -25 16 0 11 5 14 16 10 9 -3 20 -6 25 -6z m-191 -10 c0 -5 -11 -10
-25 -10 -14 0 -25 5 -25 10 0 6 11 10 25 10 14 0 25 -4 25 -10z m148 -213 c16
-34 6 -72 -25 -97 -36 -28 -70 -25 -105 10 -25 26 -29 36 -24 62 8 38 31 66
60 71 34 5 80 -17 94 -46z m639 15 c18 -11 183 -453 183 -489 0 -9 -14 -13
-44 -13 l-43 0 -90 248 c-50 136 -88 250 -86 255 5 9 64 9 80 -1z m385 2 c4
-3 -25 -83 -64 -177 -38 -95 -73 -181 -77 -191 -6 -15 -12 -5 -31 43 l-23 62
38 92 c78 187 71 177 114 177 21 0 40 -3 43 -6z m268 -44 c0 -26 -5 -40 -13
-40 -24 0 -86 -61 -97 -96 -29 -88 9 -194 80 -226 26 -11 30 -18 30 -50 0 -43
-10 -47 -68 -22 -180 75 -189 357 -14 449 69 36 82 33 82 -15z m148 21 c89
-45 135 -122 136 -226 1 -59 -3 -78 -28 -122 -16 -29 -45 -63 -65 -77 -79 -54
-121 -58 -121 -12 0 28 9 37 58 67 46 27 76 97 69 159 -7 62 -33 104 -84 136
-33 21 -43 33 -43 54 0 46 19 51 78 21z m342 -186 l0 -204 128 -3 127 -3 0
-40 0 -40 -172 -3 -173 -2 0 250 0 250 45 0 45 0 0 -205z m590 170 c0 -25 -5
-37 -17 -42 -137 -48 -149 -265 -19 -327 31 -15 36 -22 36 -51 0 -29 -4 -35
-22 -35 -36 0 -106 40 -138 78 -67 81 -76 196 -24 291 32 61 112 120 162 121
19 0 22 -5 22 -35z m145 14 c163 -77 180 -326 30 -431 -22 -15 -55 -31 -72
-34 -33 -6 -33 -6 -33 33 0 33 4 40 28 49 16 6 42 28 57 48 61 80 36 216 -47
261 -34 18 -38 24 -38 58 0 44 10 46 75 16z m-2727 -76 l33 -63 97 0 c53 0
103 -4 111 -9 9 -6 21 -51 32 -118 15 -94 15 -111 3 -130 -8 -13 -23 -23 -34
-23 -11 0 -20 -6 -20 -12 0 -48 -33 -347 -40 -365 -8 -19 -17 -23 -50 -23 -48
0 -43 -19 -70 255 l-21 210 -69 143 c-72 148 -79 169 -58 190 26 26 52 8 86
-55z m-154 -49 c21 -20 20 -43 -1 -66 -23 -26 -59 -23 -79 7 -15 23 -15 27 0
50 19 29 56 33 80 9z m642 8 c20 -14 25 -45 9 -68 -21 -32 -60 -31 -81 1 -15
23 -15 27 0 50 16 24 50 33 72 17z m-605 -144 c4 -14 10 -58 14 -98 7 -66 6
-72 -13 -77 -21 -5 -24 -19 -38 -140 -7 -68 -19 -85 -51 -77 -17 5 -21 16 -27
72 -12 122 -17 140 -38 145 -18 5 -19 11 -13 84 12 123 13 124 92 121 63 -3
67 -5 74 -30z m648 10 c5 -13 12 -58 16 -101 6 -73 5 -79 -13 -84 -21 -5 -23
-14 -38 -143 -12 -104 -67 -103 -78 2 -14 122 -17 136 -38 142 -19 4 -20 10
-14 73 4 37 10 83 13 101 l5 32 69 0 c63 0 70 -2 78 -22z"/>
</g>
</svg>
