<?xml version="1.0" standalone="no"?>
<!DOCTYPE svg PUBLIC "-//W3C//DTD SVG 20010904//EN"
 "http://www.w3.org/TR/2001/REC-SVG-20010904/DTD/svg10.dtd">
<svg version="1.0" xmlns="http://www.w3.org/2000/svg"
 width="476.000000pt" height="314.000000pt" viewBox="0 0 476.000000 314.000000"
 preserveAspectRatio="xMidYMid meet">
<metadata>
Created by potrace 1.16, written by Peter Selinger 2001-2019
</metadata>
<g transform="translate(0.000000,314.000000) scale(0.100000,-0.100000)"
fill="#000000" stroke="none">
<path d="M1225 2128 c-4 -10 -4 -26 0 -35 8 -17 8 -17 12 0 3 9 3 25 0 35 -4
16 -4 16 -12 0z"/>
<path d="M1130 2092 c0 -13 23 -32 39 -32 11 0 10 4 -4 20 -19 21 -35 26 -35
12z"/>
<path d="M1305 2080 c-10 -11 -13 -20 -8 -20 13 0 38 29 31 35 -3 3 -13 -4
-23 -15z"/>
<path d="M1197 2030 c-14 -20 -13 -28 5 -81 11 -34 25 -58 32 -56 6 2 20 29
31 60 15 43 17 62 9 75 -17 26 -59 27 -77 2z"/>
<path d="M1110 2006 c0 -10 28 -13 41 -5 10 6 7 9 -13 9 -16 0 -28 -2 -28 -4z"/>
<path d="M1309 2001 c12 -8 51 -4 51 5 0 2 -15 4 -32 4 -23 0 -29 -3 -19 -9z"/>
<path d="M1175 1805 c-31 -31 -32 -66 -1 -101 49 -58 136 -25 136 50 0 69 -86
101 -135 51z"/>
<path d="M1865 1800 c-3 -5 89 -266 160 -455 14 -38 17 -40 60 -41 25 0 45 1
45 3 0 10 -114 331 -144 406 -33 82 -33 82 -75 88 -23 3 -44 3 -46 -1z"/>
<path d="M2284 1802 l-42 -3 -51 -124 c-28 -68 -51 -130 -51 -137 0 -19 33
-108 40 -108 3 0 16 26 27 58 12 31 44 113 73 181 28 68 49 127 48 130 -2 3
-22 5 -44 3z"/>
<path d="M2525 1781 c-49 -23 -99 -74 -119 -123 -9 -21 -16 -67 -16 -106 0
-112 54 -194 153 -231 48 -18 57 -14 57 24 0 29 -5 36 -36 51 -122 58 -121
260 1 318 30 15 35 22 35 51 0 41 -14 44 -75 16z"/>
<path d="M2670 1762 c0 -32 4 -39 30 -50 17 -8 43 -30 58 -50 24 -31 27 -44
27 -108 0 -82 -15 -111 -78 -153 -31 -20 -37 -30 -37 -59 0 -33 1 -34 30 -29
98 20 180 131 180 243 0 91 -45 169 -123 214 -71 41 -87 40 -87 -8z"/>
<path d="M2992 1555 l3 -246 173 -2 172 -2 0 38 0 37 -130 0 -130 0 0 210 0
210 -45 0 -45 0 2 -245z"/>
<path d="M3595 1781 c-50 -22 -108 -86 -126 -137 -42 -124 10 -257 123 -315
49 -25 65 -24 70 4 6 37 -1 52 -33 66 -44 19 -82 82 -86 144 -6 68 26 134 79
162 36 19 48 42 40 78 -4 21 -17 21 -67 -2z"/>
<path d="M3740 1763 c0 -34 4 -40 37 -58 57 -31 85 -86 80 -162 -3 -71 -22
-104 -80 -142 -30 -20 -37 -30 -37 -58 0 -42 17 -43 85 -4 167 96 162 351 -9
436 -68 34 -76 32 -76 -12z"/>
<path d="M1012 1758 c-21 -21 -14 -44 52 -177 72 -143 77 -162 102 -421 9 -96
21 -181 26 -187 13 -16 74 -17 83 -3 5 8 44 342 45 383 0 4 8 7 19 7 39 0 45
23 32 133 -18 146 -19 147 -144 148 l-102 0 -30 62 c-31 63 -57 81 -83 55z"/>
<path d="M872 1658 c-16 -16 -15 -63 2 -78 39 -32 100 23 72 65 -16 24 -56 31
-74 13z"/>
<path d="M1514 1645 c-15 -23 -15 -27 0 -50 27 -42 86 -26 86 23 0 55 -56 72
-86 27z"/>
<path d="M835 1541 c-9 -16 -25 -164 -19 -183 3 -10 12 -18 19 -18 14 0 18
-18 33 -145 7 -58 8 -60 37 -60 29 0 30 2 37 60 15 127 19 145 33 145 7 0 16
8 19 18 6 19 -10 167 -19 183 -4 5 -35 9 -70 9 -35 0 -66 -4 -70 -9z"/>
<path d="M1481 1527 c-5 -12 -12 -58 -16 -100 -7 -73 -6 -79 13 -84 18 -4 22
-18 33 -109 l12 -104 28 0 c33 0 35 7 45 113 5 63 11 83 29 100 21 21 22 26
14 102 -5 44 -11 86 -14 93 -3 8 -27 12 -70 12 -59 0 -66 -2 -74 -23z"/>
</g>
</svg>
